<svg xmlns="http://www.w3.org/2000/svg" width="201" height="32" viewBox="0 0 201 32" fill="none">
  <path d="M44.7629 27.3105C43.0264 26.2369 42.1478 24.3938 42.1478 21.7995C42.1478 21.199 42.1894 20.5569 42.2752 19.8706H51.5814C51.5398 20.193 51.5164 20.4919 51.5164 20.7493C51.5164 21.8853 51.9246 22.5066 52.759 22.5715C53.5935 22.6365 54.797 22.6781 56.4035 22.6781C57.4979 22.6781 58.4181 22.6573 59.1278 22.6339C59.8349 22.6131 60.243 22.0334 60.3938 20.9182C60.4146 20.8533 60.4146 20.7909 60.4146 20.7259C60.4146 19.9746 59.8583 19.5457 58.7197 19.4599C57.5837 19.3741 55.8472 19.2442 53.5077 19.096C50.3545 18.9036 47.8667 18.2823 46.0029 17.2295C44.1364 16.1793 43.1928 14.5053 43.1928 12.1891C43.1928 11.781 43.2136 11.352 43.2786 10.9023C43.6217 8.11565 44.9293 6.11922 47.2246 4.89745C49.52 3.67568 52.928 3.0752 57.4537 3.0752C62.9231 3.0752 66.5468 3.63149 68.2833 4.74928C70.0198 5.86447 70.8776 7.70753 70.8776 10.2602C70.8776 10.8399 70.836 11.4404 70.771 12.0825H61.5064C61.5506 11.7602 61.5714 11.482 61.5714 11.2247C61.5714 10.0445 61.1424 9.42321 60.2638 9.35822C59.3852 9.29323 58.0984 9.25164 56.4243 9.25164C55.2025 9.25164 54.3005 9.27243 53.7234 9.33742C53.1437 9.40241 52.7798 9.9821 52.629 11.0739V11.2455C52.629 12.0175 53.2945 12.4464 54.6437 12.5114C55.972 12.5764 57.7735 12.7038 60.0688 12.8754C63.0921 13.0677 65.4732 13.6266 67.2305 14.5468C68.967 15.4697 69.8456 16.9904 69.8456 19.0726C69.8456 19.4573 69.8248 19.8654 69.7598 20.2736C69.3517 23.5126 68.1299 25.7637 66.0919 27.0297C64.0331 28.2957 60.4302 28.9169 55.2623 28.9169C50.0945 28.9169 46.4916 28.3815 44.7551 27.3079L44.7629 27.3105Z" fill="#D9EEFB"/>
  <path d="M90.7405 24.5862L90.205 24.3705C89.1548 25.5715 88.3177 26.4085 87.7172 26.8998C87.1168 27.3937 86.4513 27.8018 85.7026 28.1008C84.2027 28.7013 82.3363 29.0236 80.3424 29.0236C77.6415 29.0236 74.3168 28.4439 72.3645 26.5801C71.057 25.3141 70.5839 23.8792 70.5839 22.3117C70.5839 21.9035 70.6047 21.4538 70.6696 20.9599C70.8412 19.6316 71.1843 18.5788 71.6783 17.8067C72.1722 17.0555 72.7934 16.3484 73.5863 15.7271C74.3584 15.1058 75.2812 14.5911 76.3522 14.2038C78.4968 13.4525 81.0053 13.0886 83.1707 13.0886H90.1192L90.1842 12.5089C90.205 12.2516 90.2258 12.015 90.2258 11.8018C90.2258 10.5801 89.7553 9.48568 88.3593 9.3349C87.6523 9.26992 86.8594 9.22832 85.9574 9.22832C85.1203 9.22832 84.3925 9.24912 83.7712 9.27252C83.1499 9.29331 82.5494 9.55066 82.0139 10.0446C81.4784 10.5385 81.1145 11.3105 80.9195 12.3165H71.7848C72.193 10.0212 73.0066 8.26391 74.2518 7.01874C75.4735 5.77617 76.8253 4.89494 78.2628 4.38023C79.7003 3.86553 81.0729 3.5016 82.4012 3.30663C83.7088 3.11427 85.2737 3.00769 87.0752 3.00769C90.4623 3.00769 92.9943 3.33003 94.6891 3.95131C96.3606 4.59599 97.6474 5.56041 98.5702 6.82378C99.493 8.08974 99.9428 9.61045 99.9428 11.3911C99.9428 11.9266 99.8986 12.5063 99.8362 13.1068L97.9281 28.6961H88.4269L88.5127 27.9448C88.5777 27.3235 88.9208 26.6165 89.3705 26.1226L90.7431 24.5784L90.7405 24.5862ZM86.7944 22.3559C88.0812 22.0335 88.8948 21.5422 89.1314 20.8325L89.6669 18.4306H83.7062C81.9697 18.4306 80.8103 18.6464 80.5322 20.6818C80.5114 20.8325 80.5114 20.9599 80.5114 21.0899C80.5114 21.7554 80.748 22.2909 81.325 22.5482C81.9047 22.8264 82.6768 22.8264 83.3839 22.8264C84.3275 22.8264 85.4843 22.699 86.7944 22.3533V22.3559Z" fill="#D9EEFB"/>
  <path d="M116.452 15.3007C116.603 13.949 116.689 12.878 116.689 12.0851C116.689 11.2065 116.538 10.5852 116.26 10.2187C115.982 9.85472 115.36 9.68315 114.438 9.68315C113.387 9.68315 112.509 9.9821 111.778 10.606C111.243 11.0557 110.814 12.0643 110.492 13.6292L108.649 28.7038H98.955L102.064 3.24936H111.758L111.586 4.6635C111.586 4.77008 111.521 4.87925 111.435 4.96504L109.291 7.02385L109.74 7.302L110.276 6.80809C110.489 6.57154 110.726 6.35838 110.962 6.12182C113.086 4.128 115.55 3.11938 118.381 3.11938C118.573 3.11938 118.789 3.11938 119.002 3.14018C122.327 3.33254 124.448 4.53352 125.371 6.74311C125.392 6.82889 125.436 6.91467 125.478 6.97966C125.605 6.87308 125.735 6.74311 125.863 6.63653C128.587 4.29956 131.394 3.11938 134.29 3.11938C134.482 3.11938 134.654 3.11938 134.846 3.14018C138.171 3.33254 140.23 4.36195 140.979 6.2492C141.73 8.15724 142.094 10.0653 142.094 12.0175C142.094 12.8104 142.052 13.6266 141.943 14.4611L140.207 28.7012H130.557L132.187 15.2981C132.359 13.884 132.444 12.7688 132.444 11.9525C132.444 11.1363 132.317 10.5592 132.06 10.1953C131.802 9.85212 131.202 9.68056 130.279 9.68056C129.229 9.68056 128.35 9.9795 127.62 10.6034C127.04 11.0973 126.59 12.2125 126.247 13.9905C126.226 14.1413 126.226 14.3129 126.203 14.4637L124.467 28.7038H114.817L116.447 15.3007H116.452Z" fill="#D9EEFB"/>
  <path d="M144.842 27.3105C143.105 26.2369 142.226 24.3938 142.226 21.7995C142.226 21.199 142.271 20.5569 142.356 19.8706H151.663C151.621 20.193 151.598 20.4919 151.598 20.7493C151.598 21.8853 152.006 22.5066 152.84 22.5715C153.675 22.6365 154.878 22.6781 156.485 22.6781C157.579 22.6781 158.499 22.6573 159.209 22.6339C159.916 22.6131 160.324 22.0334 160.475 20.9182C160.496 20.8533 160.496 20.7909 160.496 20.7259C160.496 19.9746 159.94 19.5457 158.801 19.4599C157.665 19.3741 155.928 19.2442 153.589 19.096C150.436 18.9036 147.948 18.2823 146.084 17.2295C144.218 16.1793 143.274 14.5053 143.274 12.1891C143.274 11.781 143.295 11.352 143.36 10.9023C143.703 8.11565 145.011 6.11922 147.306 4.89745C149.601 3.67568 153.009 3.0752 157.535 3.0752C163.004 3.0752 166.628 3.63149 168.365 4.74928C170.101 5.86447 170.959 7.70753 170.959 10.2602C170.959 10.8399 170.917 11.4404 170.852 12.0825H161.588C161.629 11.7602 161.653 11.482 161.653 11.2247C161.653 10.0445 161.224 9.42321 160.345 9.35822C159.466 9.29323 158.18 9.25164 156.506 9.25164C155.284 9.25164 154.382 9.27243 153.805 9.33742C153.228 9.40241 152.861 9.9821 152.71 11.0739V11.2455C152.71 12.0175 153.376 12.4464 154.725 12.5114C156.053 12.5764 157.855 12.7038 160.15 12.8754C163.173 13.0677 165.554 13.6266 167.312 14.5468C169.048 15.4697 169.927 16.9904 169.927 19.0726C169.927 19.4573 169.906 19.8654 169.841 20.2736C169.433 23.5126 168.211 25.7637 166.173 27.0297C164.114 28.2957 160.511 28.9169 155.344 28.9169C150.176 28.9169 146.573 28.3815 144.836 27.3079L144.842 27.3105Z" fill="#D9EEFB"/>
  <path d="M174.414 26.1095C172.29 24.2431 171.24 21.6488 171.24 18.324C171.24 17.5311 171.281 16.7149 171.39 15.8362C171.947 11.2897 173.662 8.00911 176.517 5.99189C179.368 3.97727 182.992 2.96866 187.411 2.96866C191.83 2.96866 195.088 3.87069 197.211 5.69295C199.335 7.51521 200.385 10.0679 200.385 13.3485C200.385 14.1414 200.341 14.9576 200.235 15.8362C199.678 20.4036 197.983 23.7284 195.132 25.808C192.28 27.8876 188.633 28.917 184.216 28.917C179.8 28.917 176.54 27.9734 174.416 26.1069L174.414 26.1095ZM188.545 21.7345C189.467 21.2848 190.154 19.3534 190.583 15.9012C190.733 14.7652 190.798 13.7774 190.798 12.9638C190.798 11.3547 190.455 10.3695 189.769 10.0055C189.062 9.64161 188.012 9.47004 186.616 9.47004C185.22 9.47004 184.063 9.6858 183.119 10.1121C182.155 10.541 181.469 12.4699 181.061 15.9012C180.91 17.058 180.847 18.0458 180.847 18.8829C180.847 20.492 181.191 21.498 181.898 21.8645C182.605 22.2284 183.634 22.4234 185.027 22.4234C186.421 22.4234 187.601 22.1869 188.545 21.7371V21.7345Z" fill="#D9EEFB"/>
  <path d="M8.57579 31.9974C7.41641 31.9974 6.29342 31.7712 5.23802 31.3241C4.21641 30.8926 3.30138 30.2739 2.51113 29.4863C1.72348 28.6986 1.10479 27.781 0.673274 26.7594C0.226158 25.7014 0 24.5784 0 23.4216C0 21.563 0.58489 19.7953 1.68968 18.311C2.22258 17.5961 2.85946 16.9696 3.58213 16.4497C4.31519 15.922 5.12364 15.5191 5.97888 15.2461L6.18424 15.1812C6.12705 15.1422 6.07246 15.1006 6.02047 15.0538C5.11324 14.2661 4.36718 13.2783 3.86288 12.1943C3.33257 11.0583 3.06483 9.83916 3.06483 8.57579C3.06483 7.41901 3.29098 6.29602 3.7381 5.23802C4.16962 4.21641 4.7883 3.29878 5.57595 2.51113C6.36361 1.72348 7.28123 1.10479 8.30284 0.673274C9.36084 0.226158 10.4838 0 11.6406 0H25.9535C27.1103 0 28.2333 0.226158 29.2913 0.673274C30.3129 1.10479 31.2305 1.72348 32.0182 2.51113C32.8058 3.29878 33.4245 4.21641 33.8561 5.23802C34.3032 6.29342 34.5293 7.41901 34.5293 8.57579C34.5293 10.0731 34.1368 11.547 33.3959 12.839C32.6759 14.092 31.6439 15.1526 30.4117 15.9038C30.3571 15.9376 30.2999 15.9688 30.2401 16C30.2973 16.0312 30.3545 16.0624 30.4117 16.0962C31.6439 16.8474 32.6759 17.908 33.3959 19.161C34.1368 20.453 34.5293 21.9269 34.5293 23.4242C34.5293 24.5836 34.3032 25.7066 33.8561 26.762C33.4245 27.7836 32.8058 28.7012 32.0182 29.4889C31.2305 30.2765 30.3129 30.8952 29.2913 31.3267C28.2333 31.7738 27.1103 32 25.9535 32H8.57579V31.9974Z" fill="#0D0F14"/>
  <path d="M32.7409 19.5354C33.4168 20.713 33.7729 22.0543 33.7729 23.4217C33.7729 24.4771 33.5676 25.5013 33.1595 26.4657C32.7669 27.3963 32.2028 28.2334 31.4828 28.9508C30.7653 29.6683 29.9283 30.2324 28.9976 30.6275C28.0332 31.0356 27.009 31.241 25.9536 31.241H8.57587C7.52046 31.241 6.49625 31.0356 5.53184 30.6275C4.60121 30.235 3.76417 29.6709 3.0467 28.9508C2.32924 28.2334 1.76514 27.3963 1.37002 26.4657C0.961892 25.5013 0.756531 24.4797 0.756531 23.4217C0.756531 21.7268 1.28943 20.1151 2.29804 18.7607C2.78415 18.1083 3.36384 17.5364 4.02412 17.0633C4.69219 16.585 5.42785 16.2158 6.20771 15.9663L7.3281 15.6101C7.8506 15.475 8.58106 15.3216 9.42071 15.2462C10.9414 15.1084 13.1406 15.2046 14.9889 16.4524C17.3492 18.0459 18.6334 21.1211 18.8101 25.5975C18.8205 25.834 19.0181 26.0186 19.2547 26.0134C19.4964 26.0082 19.6888 25.8028 19.6784 25.5611C19.4886 20.791 18.0745 17.4844 15.4698 15.7297C13.8347 14.6275 11.7057 14.1622 9.31673 14.3832C8.57067 14.4534 7.91299 14.5755 7.39309 14.7003C7.08374 14.7731 6.75881 14.6925 6.51705 14.4846C5.69041 13.7671 5.00933 12.8651 4.54922 11.8772C4.06571 10.84 3.82136 9.73004 3.82136 8.57846C3.82136 7.52306 4.02932 6.49885 4.43484 5.53443C4.82737 4.6038 5.39146 3.76676 6.11153 3.04929C6.82899 2.33183 7.66604 1.76774 8.59666 1.37261C9.56108 0.964486 10.5853 0.759125 11.6407 0.759125H25.9536C27.009 0.759125 28.0332 0.967086 28.9976 1.37261C29.9283 1.76514 30.7653 2.32923 31.4828 3.04929C32.2002 3.76676 32.7643 4.6038 33.1595 5.53443C33.5676 6.49885 33.7729 7.52306 33.7729 8.57846C33.7729 9.9432 33.4168 11.2871 32.7409 12.4647C32.0859 13.6059 31.1448 14.5729 30.0192 15.2592C29.6969 15.4542 29.32 15.54 28.9482 15.4958C28.1528 15.4022 27.1182 15.2046 26.0342 14.7835C23.0915 13.6371 21.1835 11.4431 20.3569 8.26132C20.3075 8.06635 20.1307 7.93378 19.9357 7.93378C19.9045 7.93378 19.8733 7.93638 19.8396 7.94418C19.6004 7.99877 19.4522 8.24052 19.5146 8.47708C19.9929 10.3175 20.8248 11.8772 21.9919 13.1172C22.998 14.1882 24.2509 15.02 25.7171 15.5919C26.9154 16.0599 28.0514 16.273 28.9145 16.3692C29.3044 16.4134 29.6813 16.5382 30.0192 16.7435C31.1448 17.4298 32.0859 18.3968 32.7409 19.538V19.5354Z" fill="#FDDC13"/>
</svg>